# xmcd CD database file
#
# Track frame offsets:
#	150
#	18040
#	38029
#	58769
#	79246
#	101048
#	117862
#	134077
#	153054
#	170756
#	192208
#	214747
#	233762
#	253226
#	272503
#
# Disc length: 3822 seconds
#
# Revision: 13
# Processed by: cddbd v1.5.2PL0 Copyright (c) Steve Scherf et al.
# Submitted via: CDex 1.70beta3
#
DISCID=cc0eec0f
DTITLE=サザンオールスターズ - 海のＹｅａｈ!! (Disk I -sea side-)
DYEAR=1998
DGENRE=JPop
TTITLE0=勝手にシンドバッド
TTITLE1=いとしのエリー
TTITLE2=Ｃ調言葉に御用心
TTITLE3=栞のテーマ
TTITLE4=いなせなロコモーション
TTITLE5=夏をあきらめて
TTITLE6=チャコの海岸物語
TTITLE7=匂艶ＴＨＥ　ＮＩＧＨＴ　ＣＬＵＢ
TTITLE8=鎌倉物語
TTITLE9=Bye Bye My Love (U Are The One)
TTITLE10=ミス・ブランニュー・デイ
TTITLE11=海
TTITLE12=みんなのうた
TTITLE13=希望の轍
TTITLE14=忘れられたＢＩＧ　ＷＡＶＥ
EXTD=YEAR: 1998
EXTT0=
EXTT1=
EXTT2=
EXTT3=
EXTT4=
EXTT5=
EXTT6=
EXTT7=
EXTT8=
EXTT9=
EXTT10=
EXTT11=
EXTT12=
EXTT13=
EXTT14=
PLAYORDER=
